<svg width="1315" height="848" viewBox="0 0 1315 848" fill="none" xmlns="http://www.w3.org/2000/svg">
<g clip-path="url(#clip0)">
<rect width="1315" height="848" fill="white"/>
<ellipse cx="467.5" cy="903.5" rx="962.5" ry="216.5" fill="url(#paint0_linear)"/>
<ellipse cx="479.36" cy="885.5" rx="962.582" ry="273.516" transform="rotate(-7.72986 479.36 885.5)" fill="url(#paint1_linear)"/>
<path fill-rule="evenodd" clip-rule="evenodd" d="M658.75 266.555C661.594 272.684 665.094 278.374 668.812 283.846C667.937 270.495 669.906 257.582 677.344 246.419C669.469 248.389 664.219 257.144 658.75 266.555Z" fill="url(#paint2_radial)"/>
<path fill-rule="evenodd" clip-rule="evenodd" d="M668.812 283.846C664.875 278.374 661.594 272.684 658.75 266.555C653.281 254.299 650.437 240.51 653.5 223C635.344 236.57 622.219 255.393 615.438 277.28C611.719 288.88 609.75 301.575 609.531 314.488C605.812 307.265 604.062 300.043 604.062 293.258C593.125 305.514 586.562 321.711 586.562 339.439C586.562 377.304 616.969 407.946 654.594 408.821C606.906 407.727 602.313 344.036 638.406 331.122C643.219 367.455 687.406 368.111 676.25 323.462C672.969 310.548 669.688 296.978 668.812 283.846Z" fill="url(#paint3_radial)"/>
<path fill-rule="evenodd" clip-rule="evenodd" d="M653.5 223C635.344 236.57 622.219 255.393 615.438 277.28C616.75 301.137 632.719 299.386 646.063 285.378C651.094 280.125 655.031 273.121 658.969 266.336C653.281 254.299 650.437 240.51 653.5 223Z" fill="url(#paint4_radial)"/>
<path fill-rule="evenodd" clip-rule="evenodd" d="M668.812 283.846C664.875 278.374 661.594 272.684 658.75 266.555C657.437 282.971 662.031 300.699 665.969 317.114C672.531 343.598 659.844 354.104 647.156 350.821C660.937 365.047 684.562 357.168 676.031 323.243C672.969 310.548 669.687 296.978 668.812 283.846Z" fill="url(#paint5_radial)"/>
<path fill-rule="evenodd" clip-rule="evenodd" d="M630.75 334.624C629.656 331.779 628.562 328.277 628.125 324.775C603.844 340.971 602.531 376.866 627.25 398.316C608.875 381.462 610.406 348.413 630.75 334.624Z" fill="url(#paint6_radial)"/>
<path fill-rule="evenodd" clip-rule="evenodd" d="M677.344 246.419C669.906 257.582 668.156 270.495 668.813 283.846C669.688 296.978 672.969 310.548 676.25 323.243C687.406 367.893 643.219 367.236 638.406 330.903C602.094 344.036 606.906 408.603 655.906 408.603C694.188 408.603 725.25 377.523 725.25 339.22C725.031 283.19 671.875 280.125 677.344 246.419Z" fill="url(#paint7_radial)"/>
<path fill-rule="evenodd" clip-rule="evenodd" d="M668.812 283.846C669.687 296.978 672.969 310.548 676.25 323.243C687.406 367.893 643.219 367.236 638.406 330.903C640.594 374.896 671 384.746 689.156 373.583C702.719 365.266 708.625 344.036 696.812 322.805C688.937 308.797 677.781 296.978 668.812 283.846Z" fill="url(#paint8_radial)"/>
<path fill-rule="evenodd" clip-rule="evenodd" d="M670.563 286.473C668.813 272.465 669.906 258.895 677.125 246.419C669.688 257.582 667.938 270.495 668.594 283.846C669.469 296.978 672.75 310.548 676.031 323.243C683.469 353.228 666.188 362.64 652.406 354.979C667.063 364.172 686.094 353.885 678.438 323.024C675.594 310.986 672.094 298.729 670.563 286.473Z" fill="url(#paint9_radial)"/>
<path fill-rule="evenodd" clip-rule="evenodd" d="M638.406 330.903C602.094 344.036 606.906 408.602 655.906 408.602C672.094 408.602 686.969 403.131 698.781 393.719C652.844 424.799 607.125 367.017 638.406 330.903Z" fill="url(#paint10_radial)"/>
<path d="M517.219 491.117H529.906C528.375 500.528 521.812 505.343 510.219 505.343C496.437 505.343 489.438 500.747 489 491.117V473.607C489 459.38 497.312 453.252 510.875 452.158C522.906 451.282 531.219 456.973 531.219 468.354C531 480.611 522.25 483.894 509.562 485.207C504.094 485.864 501.469 487.615 501.469 490.241C501.688 493.087 504.312 494.619 509.562 494.619C514.156 494.838 516.562 493.524 517.219 491.117ZM501.25 474.264V479.079C504.094 477.766 507.594 476.671 511.312 476.015C516.344 475.139 518.969 472.513 518.969 468.792C518.75 464.633 516.562 462.882 512.625 462.882C505.625 462.882 501.25 467.041 501.25 474.264Z" fill="#474558"/>
<path d="M760.25 491.117H772.938C771.406 500.528 764.844 505.343 753.25 505.343C739.469 505.343 732.469 500.747 732.031 491.117V473.607C732.031 459.38 740.344 453.252 753.906 452.158C765.938 451.282 774.25 456.973 774.25 468.354C774.031 480.611 765.281 483.894 752.594 485.207C747.125 485.864 744.5 487.615 744.5 490.241C744.719 493.087 747.344 494.619 752.594 494.619C757.188 494.838 759.594 493.524 760.25 491.117ZM744.281 474.264V479.079C747.125 477.766 750.625 476.671 754.344 476.015C759.375 475.139 762 472.513 762 468.792C761.781 464.633 759.594 462.882 755.656 462.882C748.438 462.882 744.281 467.041 744.281 474.264Z" fill="#474558"/>
<path d="M550.031 474.483H566C566 479.954 561.406 484.551 555.938 484.551H539.969C539.969 478.86 544.344 474.483 550.031 474.483Z" fill="#474558"/>
<path d="M610.844 504.906C606.688 504.687 604.5 502.498 604.5 498.558V472.294C604.281 467.041 601.437 464.415 595.75 464.415C590.062 464.415 587.219 467.041 587.219 472.294V505.124H574.312V474.701C574.312 460.037 581.531 452.814 595.969 452.814C610.406 452.814 617.406 460.037 617.187 474.701V504.906H610.844Z" fill="#474558"/>
<path d="M636 466.822H623.313C624.844 457.411 631.406 452.596 643 452.596C656.781 452.596 663.781 457.192 664.219 466.822V484.332C664.219 498.559 655.906 504.687 642.344 505.781C630.312 506.657 622 500.966 622 489.585C622.219 477.328 630.969 474.045 643.656 472.732C649.125 472.075 651.75 470.324 651.75 467.698C651.531 464.852 648.906 463.32 643.656 463.32C639.281 463.32 636.656 464.415 636 466.822ZM651.969 483.894V479.079C649.125 480.392 645.625 481.487 641.906 482.143C636.875 483.019 634.25 485.426 634.25 489.366C634.469 493.525 636.656 495.276 640.594 495.276C647.813 495.276 651.969 491.117 651.969 483.894Z" fill="#474558"/>
<path d="M670.344 478.422C670.781 461.788 679.312 453.69 696.156 453.69H697.906V467.041H693.531C686.531 467.041 683.031 470.762 683.031 478.203V504.906H670.125V478.422H670.344Z" fill="#474558"/>
<path d="M718.688 462.664H717.375V491.117C717.375 493.305 718.688 494.4 721.094 494.4H725.031V504.249C720.875 504.687 716.5 504.687 711.688 504.249C706.875 503.811 704.688 500.747 704.688 495.056V439.026H711.25C714.531 439.026 717.375 442.09 717.375 445.592V453.69H725.031V456.535C725.031 460.037 722.188 462.664 718.688 462.664Z" fill="#474558"/>
<path d="M793.937 445.154V473.607L809.469 455.441H824.562L807.281 474.483L824.781 504.906H809.688L800.719 488.053C799.187 485.207 797.437 483.675 795.906 483.675C794.594 483.894 793.937 484.77 793.937 486.302V504.906H781.25V439.026H787.813C791.313 439.026 793.937 441.871 793.937 445.154Z" fill="#474558"/>
<path d="M576.84 770.6C576.84 775.616 580.512 779.144 585.336 779.144C589.056 779.144 592.08 777.176 593.208 773.72H589.344C588.552 775.352 587.112 776.144 585.312 776.144C582.384 776.144 580.296 773.984 580.296 770.6C580.296 767.192 582.384 765.056 585.312 765.056C587.112 765.056 588.552 765.848 589.344 767.456H593.208C592.08 764.024 589.056 762.032 585.336 762.032C580.512 762.032 576.84 765.584 576.84 770.6ZM608.918 772.352C608.918 768.152 605.918 765.488 602.078 765.488C598.238 765.488 595.238 768.152 595.238 772.352C595.238 776.528 598.142 779.216 601.982 779.216C605.846 779.216 608.918 776.528 608.918 772.352ZM598.646 772.352C598.646 769.688 600.254 768.416 602.03 768.416C603.806 768.416 605.462 769.688 605.462 772.352C605.462 774.992 603.758 776.288 601.982 776.288C600.182 776.288 598.646 774.992 598.646 772.352ZM629.983 779H633.343V771.2C633.343 767.528 631.087 765.512 627.895 765.512C625.951 765.512 624.199 766.544 623.335 768.056C622.423 766.4 620.719 765.512 618.655 765.512C616.999 765.512 615.583 766.208 614.743 767.312V765.704H611.383V779H614.743V771.656C614.743 769.544 615.919 768.44 617.743 768.44C619.519 768.44 620.695 769.544 620.695 771.656V779H624.055V771.656C624.055 769.544 625.231 768.44 627.031 768.44C628.807 768.44 629.983 769.544 629.983 771.656V779ZM636.531 779H639.891V765.704H636.531V779ZM638.235 764.12C639.411 764.12 640.299 763.256 640.299 762.152C640.299 761.048 639.411 760.184 638.235 760.184C637.035 760.184 636.171 761.048 636.171 762.152C636.171 763.256 637.035 764.12 638.235 764.12ZM652.523 779H655.883V771.2C655.883 767.528 653.675 765.512 650.579 765.512C648.875 765.512 647.435 766.232 646.571 767.36V765.704H643.211V779H646.571V771.656C646.571 769.52 647.747 768.368 649.571 768.368C651.347 768.368 652.523 769.52 652.523 771.656V779ZM658.214 772.304C658.214 776.456 660.902 779.216 664.286 779.216C666.374 779.216 667.886 778.184 668.678 777.032V779.096C668.678 781.568 667.238 782.624 665.39 782.624C663.71 782.624 662.462 781.832 662.126 780.632H658.79C659.126 783.68 661.742 785.552 665.486 785.552C669.854 785.552 672.062 782.696 672.062 779.096V765.704H668.678V767.6C667.886 766.448 666.374 765.488 664.286 765.488C660.902 765.488 658.214 768.152 658.214 772.304ZM668.678 772.352C668.678 774.872 666.998 776.264 665.15 776.264C663.35 776.264 661.646 774.824 661.646 772.304C661.646 769.784 663.35 768.44 665.15 768.44C666.998 768.44 668.678 769.832 668.678 772.352ZM691.382 775.208C691.286 770.336 683.918 771.848 683.918 769.424C683.918 768.656 684.566 768.152 685.814 768.152C687.134 768.152 687.95 768.848 688.046 769.88H691.262C691.07 767.24 689.126 765.488 685.91 765.488C682.622 765.488 680.654 767.264 680.654 769.472C680.654 774.344 688.166 772.832 688.166 775.208C688.166 775.976 687.446 776.576 686.126 776.576C684.782 776.576 683.846 775.808 683.726 774.8H680.342C680.486 777.272 682.814 779.216 686.15 779.216C689.39 779.216 691.382 777.488 691.382 775.208ZM706.98 772.352C706.98 768.152 703.98 765.488 700.14 765.488C696.3 765.488 693.3 768.152 693.3 772.352C693.3 776.528 696.204 779.216 700.044 779.216C703.908 779.216 706.98 776.528 706.98 772.352ZM696.708 772.352C696.708 769.688 698.316 768.416 700.092 768.416C701.868 768.416 703.524 769.688 703.524 772.352C703.524 774.992 701.82 776.288 700.044 776.288C698.244 776.288 696.708 774.992 696.708 772.352ZM722.285 772.352C722.285 768.152 719.285 765.488 715.445 765.488C711.605 765.488 708.605 768.152 708.605 772.352C708.605 776.528 711.509 779.216 715.349 779.216C719.213 779.216 722.285 776.528 722.285 772.352ZM712.013 772.352C712.013 769.688 713.621 768.416 715.397 768.416C717.173 768.416 718.829 769.688 718.829 772.352C718.829 774.992 717.125 776.288 715.349 776.288C713.549 776.288 712.013 774.992 712.013 772.352ZM734.062 779H737.422V771.2C737.422 767.528 735.214 765.512 732.118 765.512C730.414 765.512 728.974 766.232 728.11 767.36V765.704H724.75V779H728.11V771.656C728.11 769.52 729.286 768.368 731.11 768.368C732.886 768.368 734.062 769.52 734.062 771.656V779Z" fill="#6C6475"/>
</g>
<defs>
<linearGradient id="paint0_linear" x1="1.13476e+06" y1="371681" x2="1.13476e+06" y2="-138604" gradientUnits="userSpaceOnUse">
<stop stop-color="#FA9058"/>
<stop offset="0.896" stop-color="white" stop-opacity="0.01"/>
</linearGradient>
<linearGradient id="paint1_linear" x1="1.13487e+06" y1="469308" x2="1.13487e+06" y2="-175361" gradientUnits="userSpaceOnUse">
<stop stop-color="#FA9058"/>
<stop offset="0.896" stop-color="white" stop-opacity="0.01"/>
</linearGradient>
<radialGradient id="paint2_radial" cx="0" cy="0" r="1" gradientUnits="userSpaceOnUse" gradientTransform="translate(724.247 138.97) scale(175.865 175.962)">
<stop stop-color="white"/>
<stop offset="0.5" stop-color="#E60013"/>
<stop offset="1" stop-color="#871C21"/>
</radialGradient>
<radialGradient id="paint3_radial" cx="0" cy="0" r="1" gradientUnits="userSpaceOnUse" gradientTransform="translate(443.946 114.245) scale(428.228 428.465)">
<stop stop-color="white"/>
<stop offset="0.5" stop-color="#E60013"/>
<stop offset="1" stop-color="#871C21"/>
</radialGradient>
<radialGradient id="paint4_radial" cx="0" cy="0" r="1" gradientUnits="userSpaceOnUse" gradientTransform="translate(569.335 152.106) scale(303.684 303.852)">
<stop stop-color="white"/>
<stop offset="0.5" stop-color="#E60013"/>
<stop offset="1" stop-color="#871C21"/>
</radialGradient>
<radialGradient id="paint5_radial" cx="0" cy="0" r="1" gradientUnits="userSpaceOnUse" gradientTransform="translate(669.498 40.0086) scale(368.747 368.951)">
<stop stop-color="white"/>
<stop offset="0.5" stop-color="#E60013"/>
<stop offset="1" stop-color="#871C21"/>
</radialGradient>
<radialGradient id="paint6_radial" cx="0" cy="0" r="1" gradientUnits="userSpaceOnUse" gradientTransform="translate(532.98 99.3966) scale(323.56 323.739)">
<stop stop-color="white"/>
<stop offset="0.5" stop-color="#E60013"/>
<stop offset="1" stop-color="#871C21"/>
</radialGradient>
<radialGradient id="paint7_radial" cx="0" cy="0" r="1" gradientUnits="userSpaceOnUse" gradientTransform="translate(518.697 209.265) scale(492.391 492.663)">
<stop stop-color="white"/>
<stop offset="0.5" stop-color="#E60013"/>
<stop offset="1" stop-color="#871C21"/>
</radialGradient>
<radialGradient id="paint8_radial" cx="0" cy="0" r="1" gradientUnits="userSpaceOnUse" gradientTransform="translate(497.73 233.762) scale(423.075 423.308)">
<stop stop-color="white"/>
<stop offset="0.5" stop-color="#E60013"/>
<stop offset="1" stop-color="#871C21"/>
</radialGradient>
<radialGradient id="paint9_radial" cx="0" cy="0" r="1" gradientUnits="userSpaceOnUse" gradientTransform="translate(636.329 309.889) scale(148.012 148.093)">
<stop stop-color="white"/>
<stop offset="0.5" stop-color="#E60013"/>
<stop offset="1" stop-color="#871C21"/>
</radialGradient>
<radialGradient id="paint10_radial" cx="0" cy="0" r="1" gradientUnits="userSpaceOnUse" gradientTransform="translate(571.562 284.986) scale(312.427 312.6)">
<stop stop-color="white"/>
<stop offset="0.5" stop-color="#E60013"/>
<stop offset="1" stop-color="#871C21"/>
</radialGradient>
<clipPath id="clip0">
<rect width="1315" height="848" fill="white"/>
</clipPath>
</defs>
</svg>
