<svg width="90" height="76" viewBox="0 0 90 76" fill="none" xmlns="http://www.w3.org/2000/svg">
<g clip-path="url(#clip0)">
<path fill-rule="evenodd" clip-rule="evenodd" d="M45.4688 11.6602C46.2305 13.3008 47.168 14.8242 48.1641 16.2891C47.9297 12.7148 48.457 9.25781 50.4492 6.26953C48.3398 6.79687 46.9336 9.14062 45.4688 11.6602Z" fill="url(#paint0_radial)"/>
<path fill-rule="evenodd" clip-rule="evenodd" d="M48.1641 16.2891C47.1094 14.8242 46.2305 13.3008 45.4688 11.6602C44.0039 8.37891 43.2422 4.6875 44.0625 0C39.1992 3.63281 35.6836 8.67188 33.8672 14.5312C32.8711 17.6367 32.3438 21.0352 32.2852 24.4922C31.2891 22.5586 30.8203 20.625 30.8203 18.8086C27.8906 22.0898 26.1328 26.4258 26.1328 31.1719C26.1328 41.3086 34.2773 49.5117 44.3555 49.7461C31.582 49.4531 30.3516 32.4023 40.0195 28.9453C41.3086 38.6719 53.1445 38.8477 50.1562 26.8945C49.2773 23.4375 48.3984 19.8047 48.1641 16.2891Z" fill="url(#paint1_radial)"/>
<path fill-rule="evenodd" clip-rule="evenodd" d="M44.0625 0C39.1992 3.63281 35.6836 8.67187 33.8672 14.5312C34.2187 20.918 38.4961 20.4492 42.0703 16.6992C43.418 15.293 44.4727 13.418 45.5273 11.6016C44.0039 8.37891 43.2422 4.6875 44.0625 0Z" fill="url(#paint2_radial)"/>
<path fill-rule="evenodd" clip-rule="evenodd" d="M48.1641 16.2891C47.1094 14.8242 46.2305 13.3008 45.4687 11.6602C45.1172 16.0547 46.3477 20.8008 47.4023 25.1953C49.1602 32.2852 45.7617 35.0977 42.3633 34.2188C46.0547 38.0273 52.3828 35.918 50.0977 26.8359C49.2773 23.4375 48.3984 19.8047 48.1641 16.2891Z" fill="url(#paint3_radial)"/>
<path fill-rule="evenodd" clip-rule="evenodd" d="M37.9687 29.8828C37.6758 29.1211 37.3828 28.1836 37.2656 27.2461C30.7617 31.582 30.4101 41.1914 37.0312 46.9336C32.1094 42.4219 32.5195 33.5742 37.9687 29.8828Z" fill="url(#paint4_radial)"/>
<path fill-rule="evenodd" clip-rule="evenodd" d="M50.4492 6.26953C48.457 9.25781 47.9883 12.7148 48.1641 16.2891C48.3984 19.8047 49.2774 23.4375 50.1563 26.8359C53.1445 38.7891 41.3086 38.6133 40.0195 28.8867C30.293 32.4023 31.582 49.6875 44.707 49.6875C54.9609 49.6875 63.2813 41.3672 63.2813 31.1133C63.2227 16.1133 48.9844 15.293 50.4492 6.26953Z" fill="url(#paint5_radial)"/>
<path fill-rule="evenodd" clip-rule="evenodd" d="M48.1641 16.2891C48.3984 19.8047 49.2773 23.4375 50.1562 26.8359C53.1445 38.7891 41.3086 38.6133 40.0195 28.8867C40.6055 40.6641 48.75 43.3008 53.6133 40.3125C57.2461 38.0859 58.8281 32.4023 55.6641 26.7188C53.5547 22.9687 50.5664 19.8047 48.1641 16.2891Z" fill="url(#paint6_radial)"/>
<path fill-rule="evenodd" clip-rule="evenodd" d="M48.6328 16.9922C48.1641 13.2422 48.457 9.60938 50.3906 6.26953C48.3984 9.25781 47.9297 12.7148 48.1055 16.2891C48.3398 19.8047 49.2188 23.4375 50.0977 26.8359C52.0898 34.8633 47.4609 37.3828 43.7695 35.332C47.6953 37.793 52.793 35.0391 50.7422 26.7773C49.9805 23.5547 49.043 20.2734 48.6328 16.9922Z" fill="url(#paint7_radial)"/>
<path fill-rule="evenodd" clip-rule="evenodd" d="M40.0195 28.8867C30.293 32.4023 31.582 49.6875 44.707 49.6875C49.043 49.6875 53.0274 48.2227 56.1914 45.7031C43.8867 54.0234 31.6406 38.5547 40.0195 28.8867Z" fill="url(#paint8_radial)"/>
<path d="M7.55859 71.7773H10.957C10.5469 74.2969 8.78906 75.5859 5.68359 75.5859C1.99219 75.5859 0.117188 74.3555 0 71.7773V67.0898C0 63.2812 2.22656 61.6406 5.85938 61.3476C9.08203 61.1133 11.3086 62.6367 11.3086 65.6836C11.25 68.9648 8.90625 69.8437 5.50781 70.1953C4.04297 70.3711 3.33984 70.8398 3.33984 71.5429C3.39844 72.3047 4.10156 72.7148 5.50781 72.7148C6.73828 72.7734 7.38281 72.4219 7.55859 71.7773ZM3.28125 67.2656V68.5547C4.04297 68.2031 4.98047 67.9101 5.97656 67.7344C7.32422 67.5 8.02734 66.7969 8.02734 65.8008C7.96875 64.6875 7.38281 64.2187 6.32812 64.2187C4.45312 64.2187 3.28125 65.332 3.28125 67.2656Z" fill="#474558"/>
<path d="M72.6563 71.7773H76.0547C75.6445 74.2969 73.8867 75.5859 70.7813 75.5859C67.0898 75.5859 65.2148 74.3555 65.0977 71.7773V67.0898C65.0977 63.2812 67.3242 61.6406 70.957 61.3476C74.1797 61.1133 76.4062 62.6367 76.4062 65.6836C76.3477 68.9648 74.0039 69.8437 70.6055 70.1953C69.1406 70.3711 68.4375 70.8398 68.4375 71.5429C68.4961 72.3047 69.1992 72.7148 70.6055 72.7148C71.8359 72.7734 72.4805 72.4219 72.6563 71.7773ZM68.3789 67.2656V68.5547C69.1406 68.2031 70.0781 67.9101 71.0742 67.7344C72.4219 67.5 73.125 66.7969 73.125 65.8008C73.0664 64.6875 72.4805 64.2187 71.4258 64.2187C69.4922 64.2187 68.3789 65.332 68.3789 67.2656Z" fill="#474558"/>
<path d="M16.3477 67.3242H20.625C20.625 68.7891 19.3945 70.0195 17.9297 70.0195H13.6523C13.6523 68.4961 14.8242 67.3242 16.3477 67.3242Z" fill="#474558"/>
<path d="M32.6367 75.4688C31.5234 75.4102 30.9375 74.8242 30.9375 73.7695V66.7383C30.8789 65.332 30.1172 64.6289 28.5937 64.6289C27.0703 64.6289 26.3086 65.332 26.3086 66.7383V75.5273H22.8516V67.3828C22.8516 63.457 24.7852 61.5234 28.6523 61.5234C32.5195 61.5234 34.3945 63.457 34.3359 67.3828V75.4688H32.6367Z" fill="#474558"/>
<path d="M39.375 65.2735H35.9766C36.3867 62.7539 38.1445 61.4649 41.25 61.4649C44.9414 61.4649 46.8164 62.6953 46.9336 65.2735V69.961C46.9336 73.7696 44.707 75.4102 41.0742 75.7032C37.8516 75.9375 35.625 74.4141 35.625 71.3672C35.6836 68.086 38.0273 67.2071 41.4258 66.8555C42.8906 66.6797 43.5938 66.211 43.5938 65.5078C43.5352 64.7461 42.832 64.336 41.4258 64.336C40.2539 64.336 39.5508 64.6289 39.375 65.2735ZM43.6523 69.8438V68.5547C42.8906 68.9063 41.9531 69.1992 40.957 69.375C39.6094 69.6094 38.9063 70.2539 38.9063 71.3086C38.9648 72.4219 39.5508 72.8907 40.6055 72.8907C42.5391 72.8907 43.6523 71.7774 43.6523 69.8438Z" fill="#474558"/>
<path d="M48.5742 68.3789C48.6914 63.9258 50.9766 61.7578 55.4883 61.7578H55.957V65.3321H54.7852C52.9102 65.3321 51.9727 66.3282 51.9727 68.3203V75.4688H48.5156V68.3789H48.5742Z" fill="#474558"/>
<path d="M61.5234 64.1602H61.1719V71.7773C61.1719 72.3633 61.5234 72.6563 62.168 72.6563H63.2227V75.293C62.1094 75.4102 60.9375 75.4102 59.6484 75.293C58.3594 75.1758 57.7734 74.3555 57.7734 72.832V57.832H59.5312C60.4102 57.832 61.1719 58.6523 61.1719 59.5898V61.7578H63.2227V62.5195C63.2227 63.457 62.4609 64.1602 61.5234 64.1602Z" fill="#474558"/>
<path d="M81.6797 59.4727V67.0898L85.8398 62.2266H89.8828L85.2539 67.3242L89.9414 75.4688H85.8984L83.4961 70.957C83.0859 70.1953 82.6172 69.7852 82.207 69.7852C81.8555 69.8438 81.6797 70.0781 81.6797 70.4883V75.4688H78.2812V57.832H80.0391C80.9766 57.832 81.6797 58.5938 81.6797 59.4727Z" fill="#474558"/>
</g>
<defs>
<radialGradient id="paint0_radial" cx="0" cy="0" r="1" gradientUnits="userSpaceOnUse" gradientTransform="translate(63.0125 -22.4957) scale(47.1067)">
<stop stop-color="white"/>
<stop offset="0.5" stop-color="#E60013"/>
<stop offset="1" stop-color="#871C21"/>
</radialGradient>
<radialGradient id="paint1_radial" cx="0" cy="0" r="1" gradientUnits="userSpaceOnUse" gradientTransform="translate(-12.0681 -29.1146) scale(114.704)">
<stop stop-color="white"/>
<stop offset="0.5" stop-color="#E60013"/>
<stop offset="1" stop-color="#871C21"/>
</radialGradient>
<radialGradient id="paint2_radial" cx="0" cy="0" r="1" gradientUnits="userSpaceOnUse" gradientTransform="translate(21.5182 -18.9789) scale(81.3439)">
<stop stop-color="white"/>
<stop offset="0.5" stop-color="#E60013"/>
<stop offset="1" stop-color="#871C21"/>
</radialGradient>
<radialGradient id="paint3_radial" cx="0" cy="0" r="1" gradientUnits="userSpaceOnUse" gradientTransform="translate(48.3477 -48.9885) scale(98.7715)">
<stop stop-color="white"/>
<stop offset="0.5" stop-color="#E60013"/>
<stop offset="1" stop-color="#871C21"/>
</radialGradient>
<radialGradient id="paint4_radial" cx="0" cy="0" r="1" gradientUnits="userSpaceOnUse" gradientTransform="translate(11.7804 -33.0898) scale(86.6679)">
<stop stop-color="white"/>
<stop offset="0.5" stop-color="#E60013"/>
<stop offset="1" stop-color="#871C21"/>
</radialGradient>
<radialGradient id="paint5_radial" cx="0" cy="0" r="1" gradientUnits="userSpaceOnUse" gradientTransform="translate(7.95459 -3.67706) scale(131.89)">
<stop stop-color="white"/>
<stop offset="0.5" stop-color="#E60013"/>
<stop offset="1" stop-color="#871C21"/>
</radialGradient>
<radialGradient id="paint6_radial" cx="0" cy="0" r="1" gradientUnits="userSpaceOnUse" gradientTransform="translate(2.33836 2.88111) scale(113.324)">
<stop stop-color="white"/>
<stop offset="0.5" stop-color="#E60013"/>
<stop offset="1" stop-color="#871C21"/>
</radialGradient>
<radialGradient id="paint7_radial" cx="0" cy="0" r="1" gradientUnits="userSpaceOnUse" gradientTransform="translate(39.463 23.2608) scale(39.6459)">
<stop stop-color="white"/>
<stop offset="0.5" stop-color="#E60013"/>
<stop offset="1" stop-color="#871C21"/>
</radialGradient>
<radialGradient id="paint8_radial" cx="0" cy="0" r="1" gradientUnits="userSpaceOnUse" gradientTransform="translate(22.1148 16.5942) scale(83.6859)">
<stop stop-color="white"/>
<stop offset="0.5" stop-color="#E60013"/>
<stop offset="1" stop-color="#871C21"/>
</radialGradient>
<clipPath id="clip0">
<rect width="90" height="75.7617" fill="white"/>
</clipPath>
</defs>
</svg>
